Coordinates
version=1
nRows=38
nColumns=12
inDegrees=yes

Units are S.I. units (second, meters, Newtons, ...)
Angles are in degrees

endheader
time	SC_y	SC_z	SC_x	AC_y	AC_z	AC_x	GH_y	GH_z	GH_yy	EL_x	PS_y
       0.0              -18.48         -1.104          9.845          34.34         -6.265         -15.06          47.34          66.55         -33.43          76.02          43.79
   0.04407              -18.48         -1.105          9.845          34.34         -6.263         -15.06          47.34          66.54         -33.41          76.03           43.8
   0.08814              -18.48         -1.105          9.845          34.34         -6.261         -15.06          47.35          66.53         -33.38          76.03          43.81
    0.1322              -18.48         -1.105          9.846          34.35         -6.259         -15.06          47.36          66.52         -33.36          76.04          43.83
    0.1763              -18.48         -1.106          9.846          34.35         -6.257         -15.06          47.37          66.51         -33.33          76.04          43.84
    0.2203              -18.49         -1.106          9.846          34.35         -6.254         -15.06          47.37           66.5         -33.31          76.05          43.85
    0.2644              -18.49         -1.106          9.847          34.36         -6.251         -15.06          47.38          66.49         -33.28          76.06          43.87
    0.3085              -18.49         -1.107          9.847          34.36         -6.248         -15.06          47.39          66.47         -33.24          76.06          43.88
    0.3525               -18.5         -1.107          9.847          34.37         -6.245         -15.06           47.4          66.46         -33.21          76.07           43.9
    0.3966               -18.5         -1.108          9.848          34.37         -6.242         -15.06          47.42          66.44         -33.17          76.08          43.92
    0.4407               -18.5         -1.108          9.848          34.38         -6.238         -15.06          47.43          66.43         -33.13          76.09          43.94
    0.4848              -18.51         -1.109          9.849          34.38         -6.234         -15.06          47.44          66.41         -33.09           76.1          43.96
    0.5288              -18.51          -1.11          9.849          34.39          -6.23         -15.06          47.45          66.39         -33.05          76.11          43.98
    0.5729              -18.51          -1.11           9.85          34.39         -6.226         -15.06          47.47          66.37          -33.0          76.12          44.01
     0.617              -18.52         -1.111           9.85           34.4         -6.221         -15.06          47.49          66.35         -32.94          76.13          44.03
     0.661              -18.52         -1.112          9.851          34.41         -6.216         -15.06           47.5          66.32         -32.89          76.14          44.06
    0.7051              -18.53         -1.113          9.851          34.42          -6.21         -15.06          47.52          66.29         -32.82          76.16          44.09
    0.7492              -18.53         -1.114          9.852          34.43         -6.204         -15.06          47.54          66.27         -32.76          76.17          44.13
    0.7932              -18.54         -1.115          9.853          34.44         -6.197         -15.07          47.57          66.23         -32.68          76.19          44.16
    0.8373              -18.55         -1.116          9.854          34.45         -6.189         -15.07          47.59           66.2          -32.6           76.2           44.2
    0.8814              -18.56         -1.117          9.855          34.46         -6.181         -15.07          47.62          66.16         -32.51          76.22          44.25
    0.9254              -18.56         -1.118          9.856          34.47         -6.172         -15.07          47.65          66.12         -32.41          76.25           44.3
    0.9695              -18.57          -1.12          9.857          34.48         -6.162         -15.07          47.68          66.07          -32.3          76.27          44.35
     1.014              -18.58         -1.122          9.859           34.5         -6.151         -15.07          47.72          66.02         -32.18           76.3          44.41
     1.058               -18.6         -1.124           9.86          34.52         -6.138         -15.07          47.76          65.97         -32.05          76.33          44.48
     1.102              -18.61         -1.126          9.862          34.54         -6.125         -15.07          47.81           65.9          -31.9          76.36          44.55
     1.146              -18.62         -1.128          9.863          34.56         -6.109         -15.07          47.86          65.83         -31.73          76.39          44.63
      1.19              -18.64         -1.131          9.866          34.58         -6.092         -15.08          47.92          65.75         -31.54          76.44          44.73
     1.234              -18.66         -1.134          9.868          34.61         -6.072         -15.08          47.98          65.66         -31.32          76.48          44.83
     1.278              -18.68         -1.137          9.871          34.64          -6.05         -15.08          48.06          65.56         -31.08          76.54          44.95
     1.322               -18.7         -1.141          9.874          34.68         -6.025         -15.08          48.14          65.44          -30.8           76.6          45.09
     1.366              -18.73         -1.145          9.877          34.72         -5.995         -15.09          48.24          65.31         -30.49          76.67          45.25
      1.41              -18.76          -1.15          9.881          34.77         -5.962         -15.09          48.35          65.15         -30.12          76.75          45.43
     1.454               -18.8         -1.156          9.886          34.82         -5.923          -15.1          48.48          64.97         -29.69          76.84          45.64
     1.498              -18.84         -1.163          9.891          34.89         -5.877          -15.1          48.64          64.76         -29.19          76.95          45.89
     1.542              -18.89         -1.171          9.898          34.96         -5.823         -15.11          48.82          64.51         -28.61          77.08          46.18
     1.586              -18.95         -1.181          9.905          35.05         -5.759         -15.11          49.03          64.21         -27.91          77.23          46.52
     1.631              -19.02         -1.193          9.914          35.16         -5.682         -15.12          49.29          63.86         -27.07          77.41          46.94
